<svg width="26" height="28" viewBox="0 0 26 28" fill="none" xmlns="http://www.w3.org/2000/svg">
<path fill-rule="evenodd" clip-rule="evenodd" d="M17.4887 5.05517C20.7966 8.28553 20.7602 13.784 17.1193 17.3396C13.4784 20.8953 7.8481 20.9308 4.54027 17.7004C1.23244 14.47 1.26877 8.9716 4.9097 5.41595C8.55062 1.86029 14.1809 1.82481 17.4887 5.05517ZM18.6421 18.6463C22.9182 14.3781 23.052 7.69347 18.9196 3.65781C14.7578 -0.406559 7.8447 -0.245034 3.47883 4.01859C-0.887036 8.28221 -1.05243 15.0334 3.1094 19.0977C6.83765 22.7387 12.7737 22.9884 17.1087 19.9358L23.5146 27.2813L25.0552 26L18.6421 18.6463Z" fill="#2C2B2B"/>
</svg>
